<?xml version="1.0" standalone="no"?>
<!DOCTYPE svg PUBLIC "-//W3C//DTD SVG 20010904//EN"
 "http://www.w3.org/TR/2001/REC-SVG-20010904/DTD/svg10.dtd">
<svg version="1.0" xmlns="http://www.w3.org/2000/svg"
 width="700.000000pt" height="700.000000pt" viewBox="0 0 700.000000 700.000000"
 preserveAspectRatio="xMidYMid meet">
<metadata>
Created by potrace 1.14, written by Peter Selinger 2001-2017
</metadata>
<g transform="translate(0.000000,700.000000) scale(0.100000,-0.100000)"
fill="#000000" stroke="none">
<path d="M3278 6996 c-1 -2 -39 -6 -83 -10 -133 -10 -220 -23 -435 -65 -154
-31 -472 -130 -597 -187 -28 -13 -54 -24 -58 -24 -13 0 -287 -140 -380 -194
-88 -52 -251 -158 -295 -193 -8 -6 -51 -40 -95 -74 -520 -404 -929 -982 -1147
-1619 -46 -136 -100 -339 -124 -465 -9 -49 -17 -97 -19 -105 -11 -59 -20 -136
-31 -255 -16 -165 -9 -608 10 -712 2 -10 7 -43 10 -74 4 -31 9 -67 11 -80 3
-13 7 -38 9 -54 17 -124 143 -572 185 -660 6 -11 22 -48 36 -83 38 -93 139
-298 180 -366 19 -32 35 -61 35 -63 0 -15 203 -306 280 -402 190 -235 432
-467 650 -626 30 -22 57 -43 58 -47 2 -5 8 -8 13 -8 6 0 38 -19 72 -43 60 -42
138 -90 222 -138 52 -29 312 -159 320 -159 3 0 24 -9 48 -19 190 -86 583 -198
784 -225 22 -3 52 -8 65 -10 179 -41 744 -41 985 -2 21 4 52 8 68 10 132 17
399 84 579 146 570 197 1085 538 1476 979 36 41 70 79 77 86 7 7 55 69 107
139 336 447 564 975 655 1521 40 238 46 314 46 580 0 245 -13 423 -39 562 -2
10 -11 59 -21 108 -144 769 -568 1492 -1180 2012 -314 267 -759 517 -1130 637
-27 9 -79 26 -115 37 -36 12 -72 22 -80 24 -8 2 -42 10 -75 19 -71 18 -196 45
-245 52 -19 3 -60 9 -91 15 -31 5 -81 12 -110 15 -30 3 -67 8 -84 10 -34 5
-541 14 -547 10z"/>
</g>
</svg>
