<?xml version="1.0" encoding="UTF-8" standalone="no"?>
<svg
   xmlns:dc="http://purl.org/dc/elements/1.1/"
   xmlns:cc="http://creativecommons.org/ns#"
   xmlns:rdf="http://www.w3.org/1999/02/22-rdf-syntax-ns#"
   xmlns:svg="http://www.w3.org/2000/svg"
   xmlns="http://www.w3.org/2000/svg"
   xmlns:xlink="http://www.w3.org/1999/xlink"
   xmlns:sodipodi="http://sodipodi.sourceforge.net/DTD/sodipodi-0.dtd"
   xmlns:inkscape="http://www.inkscape.org/namespaces/inkscape"
   width="512"
   height="512"
   viewBox="0 0 135.46667 135.46667"
   version="1.1"
   id="svg8"
   inkscape:version="1.0.2 (e86c870879, 2021-01-15, custom)"
   sodipodi:docname="logo.svg">
  <defs
     id="defs2">
    <linearGradient
       inkscape:collect="always"
       id="linearGradient1003">
      <stop
         style="stop-color:#4b7bec;stop-opacity:1"
         offset="0"
         id="stop999" />
      <stop
         style="stop-color:#a55eea;stop-opacity:1"
         offset="1"
         id="stop1001" />
    </linearGradient>
    <linearGradient
       inkscape:collect="always"
       id="linearGradient990">
      <stop
         style="stop-color:#fc5c65;stop-opacity:1"
         offset="0"
         id="stop994" />
      <stop
         style="stop-color:#fd9644;stop-opacity:1"
         offset="1"
         id="stop996" />
    </linearGradient>
    <linearGradient
       inkscape:collect="always"
       xlink:href="#linearGradient990"
       id="linearGradient992"
       x1="19.838633"
       y1="115.62803"
       x2="115.62803"
       y2="19.838633"
       gradientUnits="userSpaceOnUse" />
    <linearGradient
       inkscape:collect="always"
       xlink:href="#linearGradient1003"
       id="linearGradient1005"
       x1="19.838638"
       y1="115.62803"
       x2="134.87143"
       y2="0.59522659"
       gradientUnits="userSpaceOnUse" />
  </defs>
  <sodipodi:namedview
     id="base"
     pagecolor="#ffffff"
     bordercolor="#666666"
     borderopacity="1.0"
     inkscape:pageopacity="0.0"
     inkscape:pageshadow="2"
     inkscape:zoom="0.98994949"
     inkscape:cx="286.19429"
     inkscape:cy="261.89327"
     inkscape:document-units="mm"
     inkscape:current-layer="layer1"
     inkscape:document-rotation="0"
     showgrid="false"
     units="px"
     inkscape:snap-smooth-nodes="true"
     inkscape:snap-center="true"
     inkscape:window-width="1372"
     inkscape:window-height="821"
     inkscape:window-x="5"
     inkscape:window-y="528"
     inkscape:window-maximized="0">
    <inkscape:grid
       type="xygrid"
       id="grid833"
       empspacing="2" />
  </sodipodi:namedview>
  <metadata
     id="metadata5">
    <rdf:RDF>
      <cc:Work
         rdf:about="">
        <dc:format>image/svg+xml</dc:format>
        <dc:type
           rdf:resource="http://purl.org/dc/dcmitype/StillImage" />
        <dc:title></dc:title>
      </cc:Work>
    </rdf:RDF>
  </metadata>
  <g
     inkscape:label="Layer 1"
     inkscape:groupmode="layer"
     id="layer1">
    <path
       id="path853"
       style="fill:url(#linearGradient1005);stroke-width:0.264999;stroke-linecap:round;stroke-linejoin:round;paint-order:stroke markers fill;fill-opacity:1"
       d="m 115.62803,19.838632 a 67.73333,67.73333 0 0 1 1e-5,95.789398 67.73333,67.73333 0 0 1 -95.789402,0 z"
       inkscape:transform-center-x="-33.866668"
       inkscape:transform-center-y="-2.48e-06" />
    <path
       id="path848"
       style="fill:url(#linearGradient992);stroke-width:0.264999;stroke-linecap:round;stroke-linejoin:round;paint-order:stroke markers fill;fill-opacity:1"
       d="m 115.62803,19.838633 a 67.733331,67.733331 0 0 0 -95.789397,0 67.733331,67.733331 0 0 0 0,95.789397 z"
       inkscape:transform-center-x="33.866668" />
    <circle
       style="fill:#ffd42a;stroke-width:0.225663;stroke-linecap:round;stroke-linejoin:round;paint-order:stroke markers fill"
       id="path871"
       cx="46.566666"
       cy="45.772915"
       r="28.839582" />
    <path
       id="path861"
       style="fill:#d1d8e0;stroke-width:0.950173;stroke-linecap:round;stroke-linejoin:round;paint-order:stroke markers fill;fill-opacity:1"
       d="M 368 160 A 95.999998 95.999998 0 0 0 350.36523 161.63477 L 160 352 L 368 352 A 95.999998 95.999998 0 0 0 464 256 A 95.999998 95.999998 0 0 0 368 160 z "
       transform="scale(0.26458333)" />
    <path
       id="path866"
       style="fill:#ffffff;stroke-width:0.950173;stroke-linecap:round;stroke-linejoin:round;paint-order:stroke markers fill;fill-opacity:1"
       d="M 263.81445 104 A 87.999997 87.999997 0 0 0 180.39258 164.54688 A 47.999998 47.999998 0 0 0 160 160 A 47.999998 47.999998 0 0 0 112 208 A 47.999998 47.999998 0 0 0 112.03516 209.79297 A 71.999996 71.999996 0 0 0 56 280 A 71.999996 71.999996 0 0 0 128 352 A 71.999996 71.999996 0 0 0 128.36133 352 L 160 352 L 350.36523 161.63477 A 95.999998 95.999998 0 0 0 346.85742 162.35742 A 87.999997 87.999997 0 0 0 264 104 A 87.999997 87.999997 0 0 0 263.81445 104 z "
       transform="scale(0.26458333)" />
    <path
       style="fill:#ffd42a;stroke:none;stroke-width:0.264583px;stroke-linecap:butt;stroke-linejoin:miter;stroke-opacity:1;fill-opacity:1"
       d="m 59.266666,93.133332 -8.466667,16.933338 h 8.466667 l -8.466667,12.7 16.933333,-16.93334 h -8.466666 l 8.466666,-12.699998 z"
       id="path883" />
    <g
       id="g946"
       transform="matrix(0.05255598,0,0,0.05255598,77.714483,94.64779)"
       style="fill:#5fbcd3">
      <g
         id="g889"
         style="fill:#5fbcd3">
	<g
   id="g887"
   style="fill:#5fbcd3">
		<path
   d="m 132.281,264.564 c 51.24,0 92.931,-41.681 92.931,-92.918 0,-50.18 -87.094,-164.069 -90.803,-168.891 L 132.281,0 130.153,2.773 c -3.704,4.813 -90.802,118.71 -90.802,168.882 10e-4,51.228 41.691,92.909 92.93,92.909 z"
   id="path885"
   style="fill:#5fbcd3" />

	</g>

</g>
      <g
         id="g891"
         style="fill:#5fbcd3">
</g>
      <g
         id="g893"
         style="fill:#5fbcd3">
</g>
      <g
         id="g895"
         style="fill:#5fbcd3">
</g>
      <g
         id="g897"
         style="fill:#5fbcd3">
</g>
      <g
         id="g899"
         style="fill:#5fbcd3">
</g>
      <g
         id="g901"
         style="fill:#5fbcd3">
</g>
      <g
         id="g903"
         style="fill:#5fbcd3">
</g>
      <g
         id="g905"
         style="fill:#5fbcd3">
</g>
      <g
         id="g907"
         style="fill:#5fbcd3">
</g>
      <g
         id="g909"
         style="fill:#5fbcd3">
</g>
      <g
         id="g911"
         style="fill:#5fbcd3">
</g>
      <g
         id="g913"
         style="fill:#5fbcd3">
</g>
      <g
         id="g915"
         style="fill:#5fbcd3">
</g>
      <g
         id="g917"
         style="fill:#5fbcd3">
</g>
      <g
         id="g919"
         style="fill:#5fbcd3">
</g>
    </g>
    <g
       id="g984"
       transform="matrix(0.02627799,0,0,0.02627799,38.857241,102.35723)"
       style="fill:#5fbcd3">
      <g
         id="g952"
         style="fill:#5fbcd3">
	<g
   id="g950"
   style="fill:#5fbcd3">
		<path
   d="m 132.281,264.564 c 51.24,0 92.931,-41.681 92.931,-92.918 0,-50.18 -87.094,-164.069 -90.803,-168.891 L 132.281,0 130.153,2.773 c -3.704,4.813 -90.802,118.71 -90.802,168.882 10e-4,51.228 41.691,92.909 92.93,92.909 z"
   id="path948"
   style="fill:#5fbcd3" />

	</g>

</g>
      <g
         id="g954"
         style="fill:#5fbcd3">
</g>
      <g
         id="g956"
         style="fill:#5fbcd3">
</g>
      <g
         id="g958"
         style="fill:#5fbcd3">
</g>
      <g
         id="g960"
         style="fill:#5fbcd3">
</g>
      <g
         id="g962"
         style="fill:#5fbcd3">
</g>
      <g
         id="g964"
         style="fill:#5fbcd3">
</g>
      <g
         id="g966"
         style="fill:#5fbcd3">
</g>
      <g
         id="g968"
         style="fill:#5fbcd3">
</g>
      <g
         id="g970"
         style="fill:#5fbcd3">
</g>
      <g
         id="g972"
         style="fill:#5fbcd3">
</g>
      <g
         id="g974"
         style="fill:#5fbcd3">
</g>
      <g
         id="g976"
         style="fill:#5fbcd3">
</g>
      <g
         id="g978"
         style="fill:#5fbcd3">
</g>
      <g
         id="g980"
         style="fill:#5fbcd3">
</g>
      <g
         id="g982"
         style="fill:#5fbcd3">
</g>
    </g>
  </g>
</svg>
